# xmcd CD database file
#
# Track frame offsets:
#	150
#	45231
#	90786
#	135637
#	178391
#
# Disc length: 3025 seconds
#
# Revision: 0
# Processed by: cddbd v1.5.1PL0 Copyright (c) Steve Scherf et al.
# Submitted via: CDex 1.51
#
DISCID=340bcf05
DTITLE=Jo Evlyn - Africa
DYEAR=2001
DGENRE=New Age
TTITLE0=Awakening
TTITLE1=Happiness
TTITLE2=Mistery
TTITLE3=Lively Day
TTITLE4=Promise
EXTD=YEAR: 2001
EXTT0=
EXTT1=
EXTT2=
EXTT3=
EXTT4=
PLAYORDER=
